<svg width="50" height="16" viewBox="0 0 50 16" fill="none" xmlns="http://www.w3.org/2000/svg">
<path d="M1.66675 7C1.11446 7 0.666748 7.44772 0.666748 8C0.666748 8.55228 1.11446 9 1.66675 9V7ZM49.3739 8.70711C49.7644 8.31658 49.7644 7.68342 49.3739 7.29289L43.0099 0.928932C42.6194 0.538408 41.9862 0.538408 41.5957 0.928932C41.2052 1.31946 41.2052 1.95262 41.5957 2.34315L47.2525 8L41.5957 13.6569C41.2052 14.0474 41.2052 14.6805 41.5957 15.0711C41.9862 15.4616 42.6194 15.4616 43.0099 15.0711L49.3739 8.70711ZM1.66675 9H48.6667V7H1.66675V9Z" fill="#16F1FF"/>
</svg>
